<svg id="visual" viewBox="0 0 2000 900" width="2000" height="900" xmlns="http://www.w3.org/2000/svg" xmlns:xlink="http://www.w3.org/1999/xlink" version="1.1"><rect x="0" y="0" width="2000" height="900" fill="#d0d0d0"></rect><path d="M0 613L20.8 634.3C41.7 655.7 83.3 698.3 125 703.8C166.7 709.3 208.3 677.7 250 686C291.7 694.3 333.3 742.7 375 738.2C416.7 733.7 458.3 676.3 500 648.5C541.7 620.7 583.3 622.3 625 616.5C666.7 610.7 708.3 597.3 750 566.3C791.7 535.3 833.3 486.7 875 455.2C916.7 423.7 958.3 409.3 1000 466.3C1041.7 523.3 1083.3 651.7 1125 703.5C1166.7 755.3 1208.3 730.7 1250 690.7C1291.7 650.7 1333.3 595.3 1375 603.8C1416.7 612.3 1458.3 684.7 1500 674.3C1541.7 664 1583.3 571 1625 555.8C1666.7 540.7 1708.3 603.3 1750 593.8C1791.7 584.3 1833.3 502.7 1875 472.8C1916.7 443 1958.3 465 1979.2 476L2000 487L2000 901L1979.2 901C1958.3 901 1916.7 901 1875 901C1833.3 901 1791.7 901 1750 901C1708.3 901 1666.7 901 1625 901C1583.3 901 1541.7 901 1500 901C1458.3 901 1416.7 901 1375 901C1333.3 901 1291.7 901 1250 901C1208.3 901 1166.7 901 1125 901C1083.3 901 1041.7 901 1000 901C958.3 901 916.7 901 875 901C833.3 901 791.7 901 750 901C708.3 901 666.7 901 625 901C583.3 901 541.7 901 500 901C458.3 901 416.7 901 375 901C333.3 901 291.7 901 250 901C208.3 901 166.7 901 125 901C83.3 901 41.7 901 20.8 901L0 901Z" fill="#FBAE3C" stroke-linecap="round" stroke-linejoin="miter"></path></svg>